<svg xmlns="http://www.w3.org/2000/svg" viewBox="0 0 64 64" role="img" aria-label="Smriti Dey">
  <rect width="64" height="64" rx="14" fill="#050505"/>
  <path d="M17 42c3.5 4 8.3 6 14.4 6 7.6 0 12.8-3.8 12.8-9.7 0-5.4-3.6-7.8-11.2-9.7-5.4-1.4-7.3-2.3-7.3-4.5 0-2.1 2-3.4 5.3-3.4 3.8 0 6.9 1.3 9.6 4l4.2-5.5C41.4 15.9 36.8 14 31.2 14c-7.2 0-12.4 4-12.4 9.7 0 6.1 4.3 8.2 11.8 10 5 1.2 6.7 2.3 6.7 4.4 0 2.2-2.2 3.5-5.8 3.5-4.3 0-7.6-1.5-10.3-4.8L17 42Z" fill="#e5e5e0"/>
  <path d="M47 14v36" stroke="#cfa355" stroke-width="4" stroke-linecap="round"/>
</svg>
