<svg width="50" height="50" viewBox="0 0 50 50" fill="none" xmlns="http://www.w3.org/2000/svg">
<g clip-path="url(#clip0_2_25)">
<path d="M27.0264 23.0801H18.6924V15.0244H27.0264C28.415 15.0244 29.4775 15.3271 30.2129 15.9229C30.9473 16.5195 31.3154 17.5576 31.3154 19.0273C31.3154 20.335 30.9072 21.332 30.0898 22.0342C29.2725 22.7373 28.252 23.0801 27.0264 23.0801Z" fill="#F1E9DB"/>
<path d="M32.6221 31.2422C32.6221 32.7129 32.1895 33.8564 31.332 34.6572C30.4824 35.4658 29.2725 35.8662 27.7207 35.8662H18.6924V26.748H27.7207C29.2725 26.748 30.4658 27.124 31.332 27.9082C32.1973 28.6924 32.6221 29.7959 32.6221 31.2422Z" fill="#F1E9DB"/>
<path d="M41.667 0H8.33301C3.75 0 0 3.75 0 8.33301V41.667C0 46.25 3.75 50 8.33301 50H41.667C46.25 50 50 46.25 50 41.667V8.33301C50 3.75 46.25 0 41.667 0ZM37.1162 35.1064C36.707 36.1025 36.0703 36.9609 35.1963 37.6797C34.3223 38.3984 33.2109 38.9707 31.8467 39.3955C30.4824 39.8203 28.8643 40.0322 26.9854 40.0322H13.5869V10.8662H27.7617C30.376 10.8662 32.4756 11.4629 34.0527 12.6631C35.6289 13.8643 36.4219 15.6699 36.4219 18.0967C36.4219 19.5674 36.0625 20.8252 35.3428 21.8711C34.624 22.917 33.5947 23.7334 32.2549 24.3057V24.3877C34.0527 24.7715 35.417 25.6211 36.3398 26.9365C37.2627 28.2598 37.7285 29.9102 37.7285 31.9033C37.7285 33.0479 37.5244 34.1172 37.1162 35.1064Z" fill="#F1E9DB"/>
</g>
<defs>
<clipPath id="clip0_2_25">
<rect width="50" height="50" fill="white"/>
</clipPath>
</defs>
</svg>
