<svg width="50" height="50" viewBox="0 0 50 50" fill="none" xmlns="http://www.w3.org/2000/svg">
<path fill-rule="evenodd" clip-rule="evenodd" d="M8.33333 10.4167C8.33333 5.23908 12.5307 1.04175 17.7083 1.04175H32.2917C37.4694 1.04175 41.6667 5.23908 41.6667 10.4167C41.6667 13.3618 40.3087 15.9897 38.1848 17.7084C40.3087 19.4271 41.6667 22.0551 41.6667 25.0001C41.6667 30.1778 37.4694 34.3751 32.2917 34.3751C30.3644 34.3751 28.5729 33.7936 27.0833 32.7963V39.5834C27.0833 44.7611 22.886 48.9584 17.7083 48.9584C12.5307 48.9584 8.33333 44.7611 8.33333 39.5834C8.33333 36.6384 9.69131 34.0105 11.8153 32.2918C9.69131 30.573 8.33333 27.9451 8.33333 25.0001C8.33333 22.0551 9.69131 19.4271 11.8153 17.7084C9.69131 15.9897 8.33333 13.3618 8.33333 10.4167ZM17.7083 15.6251H22.9167V5.20842H17.7083C14.8318 5.20842 12.5 7.54027 12.5 10.4167C12.5 13.2932 14.8318 15.6251 17.7083 15.6251ZM27.0833 5.20842V15.6251H32.2917C35.1681 15.6251 37.5 13.2932 37.5 10.4167C37.5 7.54027 35.1681 5.20842 32.2917 5.20842H27.0833ZM22.9167 19.7917H17.7083C14.8318 19.7917 12.5 22.1236 12.5 25.0001C12.5 27.8765 14.8318 30.2084 17.7083 30.2084H22.9167V19.7917ZM22.9167 34.3751H17.7083C14.8318 34.3751 12.5 36.707 12.5 39.5834C12.5 42.4599 14.8318 44.7918 17.7083 44.7918C20.5848 44.7918 22.9167 42.4599 22.9167 39.5834V34.3751ZM32.2917 19.7917C29.4152 19.7917 27.0833 22.1236 27.0833 25.0001C27.0833 27.8765 29.4152 30.2084 32.2917 30.2084C35.1681 30.2084 37.5 27.8765 37.5 25.0001C37.5 22.1236 35.1681 19.7917 32.2917 19.7917Z" fill="#F1E9DB"/>
</svg>
