<svg width="53" height="53" viewBox="0 0 53 53" fill="none" xmlns="http://www.w3.org/2000/svg">
<g clip-path="url(#clip0_1_92)">
<path d="M26.5 0.655762C11.8587 0.655762 0 12.5211 0 27.1558C0 38.8666 7.59225 48.7974 18.1194 52.2976C19.4444 52.5472 19.9302 51.7279 19.9302 51.0234C19.9302 50.394 19.9081 48.7268 19.8971 46.5184C12.5257 48.1173 10.971 42.963 10.971 42.963C9.76525 39.9045 8.02287 39.0874 8.02287 39.0874C5.62242 37.4444 8.20837 37.4775 8.20837 37.4775C10.8694 37.663 12.2673 40.207 12.2673 40.207C14.6302 44.2593 18.4705 43.0889 19.9854 42.4109C20.2239 40.6973 20.9063 39.5291 21.6638 38.8666C15.7785 38.2041 9.593 35.9251 9.593 25.7711C9.593 22.8782 10.6199 20.5153 12.3203 18.6603C12.0222 17.9912 11.1278 15.297 12.5522 11.6466C12.5522 11.6466 14.7715 10.9356 19.8397 14.3629C21.9597 13.7733 24.2122 13.4818 26.4647 13.4685C28.7172 13.4818 30.9697 13.7733 33.0897 14.3629C38.1247 10.9356 40.344 11.6466 40.344 11.6466C41.7684 15.297 40.874 17.9912 40.609 18.6603C42.2984 20.5153 43.3253 22.8782 43.3253 25.7711C43.3253 35.9516 37.1309 38.193 31.2347 38.8445C32.1622 39.6395 33.0234 41.2648 33.0234 43.747C33.0234 47.2935 32.9903 50.1423 32.9903 51.0036C32.9903 51.6992 33.454 52.5273 34.8122 52.2623C45.4144 48.7864 53 38.8489 53 27.1558C53 12.5211 41.1346 0.655762 26.5 0.655762Z" fill="#F1E9DB"/>
</g>
<defs>
<clipPath id="clip0_1_92">
<rect width="53" height="53" fill="white"/>
</clipPath>
</defs>
</svg>
