<svg width="43" height="43" viewBox="0 0 43 43" fill="none" xmlns="http://www.w3.org/2000/svg">
<path d="M0.795 1.31354H41.605V21.5905C40.8949 22.4903 40.5153 23.6066 40.5295 24.7528C40.5295 26.197 40.9182 27.2968 41.6028 28.1801V33.7827L39.3547 35.09C39.867 36.097 40.6135 36.998 41.6028 37.6892V41.6863H0.797208L0.795 1.31354ZM32.1268 19.572C28.6244 19.572 26.3852 21.8113 26.3852 24.7528C26.3852 27.9438 28.2622 29.4565 31.0933 30.6601L32.0716 31.0797C33.8604 31.8636 34.927 32.3384 34.927 33.6855C34.927 34.8073 33.8891 35.6178 32.266 35.6178C30.3315 35.6178 29.2383 34.6086 28.397 33.2372L25.2103 35.09C26.3609 37.3646 28.715 39.1003 32.3565 39.1003C36.082 39.1003 38.8556 37.1658 38.8556 33.6347C38.8556 30.3598 36.9741 28.9023 33.6417 27.4735L32.6612 27.0539C30.9785 26.3251 30.2497 25.8481 30.2497 24.6733C30.2497 23.7215 30.9785 22.9928 32.1268 22.9928C33.2531 22.9928 33.9774 23.4675 34.651 24.6711L37.7029 22.7123C36.4132 20.4399 34.62 19.572 32.1268 19.572ZM19.1683 19.7951V33.129C19.1683 35.09 18.3557 35.5935 17.0682 35.5935C15.7211 35.5935 15.1602 34.6704 14.5441 33.5773L11.3508 35.5096C12.2761 37.4662 14.0936 39.0915 17.2338 39.0915C20.7097 39.0915 23.0903 37.2431 23.0903 33.182V19.7951H19.1683Z" fill="#F1E9DB"/>
<rect x="39" y="2" width="3" height="39" fill="#F1E9DB"/>
<rect x="42.0028" y="1.03735" width="3" height="41.1931" transform="rotate(90.0547 42.0028 1.03735)" fill="#F1E9DB"/>
<rect x="42.0028" y="39.0374" width="3" height="41.1884" transform="rotate(90.0547 42.0028 39.0374)" fill="#F1E9DB"/>
</svg>
