<svg width="54" height="53" viewBox="0 0 54 53" fill="none" xmlns="http://www.w3.org/2000/svg">
<g clip-path="url(#clip0_1_102)">
<path d="M26.3055 0C25.9162 0 25.6214 0.00287083 25.514 0.0147958C25.4001 0.0265 25.0372 0.0611708 24.7111 0.0872292C17.1833 0.76585 10.1323 4.82697 5.66641 11.0688C3.17961 14.5397 1.58917 18.4762 0.9885 22.6465C0.776058 24.1017 0.75 24.5317 0.75 26.5053C0.75 28.4789 0.7765 28.9088 0.9885 30.3646C2.42833 40.3153 9.51068 48.6759 19.116 51.7733C20.8361 52.3278 22.6494 52.7058 24.7113 52.9337C25.5142 53.0221 28.9853 53.0221 29.7883 52.9337C33.3474 52.54 36.3629 51.6595 39.3364 50.1418C39.7925 49.9086 39.8806 49.8465 39.8185 49.7944C39.777 49.7637 37.8339 47.1581 35.5028 44.0085L31.265 38.2845L25.9546 30.4266C23.0327 26.1063 20.6288 22.5738 20.608 22.5738C20.5872 22.5681 20.5667 26.0601 20.5561 30.3228C20.5413 37.7875 20.5356 38.0878 20.4421 38.264C20.3074 38.518 20.2036 38.6213 19.9863 38.7353C19.8207 38.8179 19.6754 38.8335 18.8932 38.8335H17.9966L17.7586 38.6834C17.611 38.5909 17.491 38.4603 17.4114 38.3053L17.3026 38.0721L17.3143 27.6863L17.3291 17.2952L17.4894 17.0932C17.5724 16.9843 17.7486 16.8447 17.8728 16.7774C18.0852 16.6736 18.1682 16.6632 19.0644 16.6632C20.1215 16.6632 20.2975 16.7045 20.572 17.0048C20.65 17.0881 23.5252 21.4186 26.9651 26.6349C30.4481 31.9147 33.9331 37.193 37.4203 42.47L41.6165 48.826L41.8285 48.6862C43.7096 47.4637 45.6986 45.7231 47.2736 43.9103C50.6256 40.0614 52.7863 35.3684 53.5115 30.3644C53.7237 28.9088 53.7496 28.4784 53.7496 26.5053C53.7496 24.5317 53.7231 24.1017 53.5115 22.646C52.0712 12.6953 44.9891 4.33474 35.384 1.23733C33.6897 0.688117 31.8868 0.309829 29.8664 0.0819292C29.4932 0.0430625 27.4733 0.000883333 26.3055 0ZM35.2901 15.9375C36.0571 15.9375 36.1915 15.9492 36.3627 16.0413C36.6116 16.1654 36.8132 16.4039 36.8861 16.6524C36.9271 16.7871 36.9377 19.6674 36.9271 26.1579L36.9123 35.4716L35.2702 32.9541L33.6226 30.4366V23.6658C33.6226 19.2889 33.6431 16.8282 33.6743 16.7091C33.7571 16.4192 33.9384 16.1911 34.1873 16.0566C34.3995 15.9475 34.4765 15.9375 35.2901 15.9375Z" fill="#F1E9DB"/>
</g>
<defs>
<clipPath id="clip0_1_102">
<rect width="53" height="53" fill="white" transform="translate(0.75)"/>
</clipPath>
</defs>
</svg>
