<svg width="51" height="49" viewBox="0 0 51 49" fill="none" xmlns="http://www.w3.org/2000/svg">
<path d="M8.89959 0H41.3568C46.2777 0 50.2563 3.97859 50.2563 8.89959V40.1004C50.2563 45.0213 46.2777 49 41.3567 49H8.89959C3.97859 48.9999 0 45.0213 0 40.1003V8.89959C0 3.97859 3.97859 0 8.89959 0Z" fill="#3A3B40"/>
<path d="M11.3077 34.3629V12.8155C11.3077 12.6689 11.3705 12.5851 11.517 12.5851C11.8731 12.5851 12.2081 12.5851 12.6897 12.5642C13.1923 12.5433 13.7158 12.5433 14.2811 12.5223C14.8465 12.5013 15.4538 12.5014 16.1029 12.4804C16.752 12.4595 17.3802 12.4595 18.0084 12.4595C19.7255 12.4595 21.1495 12.6688 22.3221 13.1086C23.3692 13.4646 24.3324 14.0509 25.1282 14.8256C25.7983 15.4958 26.3217 16.3124 26.6568 17.2128C26.9709 18.0923 27.1384 18.9927 27.1384 19.935C27.1384 21.7359 26.7196 23.2226 25.882 24.3952C25.0444 25.5679 23.8717 26.4474 22.5106 26.95C21.0866 27.4734 19.5161 27.6619 17.7991 27.6619C17.2965 27.6619 16.9615 27.6619 16.752 27.641C16.5427 27.6201 16.2495 27.6201 15.8516 27.6201V34.3419C15.8726 34.4884 15.7679 34.6141 15.6213 34.6351C15.6004 34.6351 15.5794 34.6351 15.5375 34.6351H11.559C11.3914 34.6351 11.3077 34.5513 11.3077 34.3629ZM15.8727 16.6266V23.6625C16.1658 23.6834 16.438 23.7044 16.6893 23.7044H17.7992C19.2451 23.7044 20.9151 23.3646 21.9243 22.2177C22.7929 21.2307 22.7954 19.2732 22.0919 18.1972C21.2568 16.9199 19.5867 16.5499 18.1551 16.5848C17.6106 16.5848 17.1291 16.5848 16.7311 16.6057C16.3124 16.5847 16.0192 16.6056 15.8727 16.6266Z" fill="#F1E9DB"/>
<path d="M40.205 22.385C39.5768 22.05 38.9067 21.8196 38.1948 21.6731C37.42 21.5055 36.6452 21.4009 35.8495 21.4009C35.4307 21.38 34.991 21.4428 34.5931 21.5475C34.3209 21.6103 34.0906 21.7568 33.944 21.9663C33.8393 22.1338 33.7765 22.3432 33.7765 22.5317C33.7765 22.7201 33.8602 22.9086 33.9858 23.0761C34.1743 23.3065 34.4256 23.495 34.6978 23.6415C35.1794 23.8928 35.682 24.1232 36.1845 24.3326C37.3153 24.7095 38.4042 25.2329 39.4093 25.8612C40.1003 26.3009 40.6657 26.8872 41.0635 27.5992C41.3985 28.2693 41.5661 29.0022 41.5452 29.756C41.5661 30.7402 41.273 31.7244 40.7285 32.541C40.1422 33.3786 39.3256 34.0278 38.3833 34.4047C37.3572 34.8445 36.1008 35.0748 34.5931 35.0748C33.6299 35.0748 32.6876 34.9911 31.7453 34.8027C31.0124 34.677 30.2795 34.4466 29.6094 34.1325C29.4629 34.0488 29.3581 33.9022 29.379 33.7347V30.0911C29.379 30.0283 29.3999 29.9446 29.4628 29.9027C29.5256 29.8607 29.5884 29.8818 29.6512 29.9236C30.4679 30.4052 31.3265 30.7402 32.2478 30.9496C33.0435 31.159 33.8811 31.2637 34.7187 31.2637C35.5144 31.2637 36.0798 31.159 36.4567 30.9705C36.7917 30.824 37.0221 30.4679 37.0221 30.091C37.0221 29.7978 36.8546 29.5256 36.5196 29.2535C36.1845 28.9813 35.4935 28.6672 34.4674 28.2692C33.3994 27.8923 32.4152 27.3897 31.4939 26.7615C30.8448 26.3009 30.3003 25.6936 29.9025 24.9817C29.5675 24.3115 29.3999 23.5787 29.4208 22.8458C29.4208 21.9454 29.6721 21.0868 30.1328 20.312C30.6562 19.4745 31.4311 18.8044 32.3315 18.3855C33.3157 17.883 34.5511 17.6526 36.0379 17.6526C36.8965 17.6526 37.776 17.7154 38.6344 17.841C39.2626 17.9248 39.8699 18.0923 40.4353 18.3227C40.5191 18.3436 40.6029 18.4274 40.6447 18.5112C40.6656 18.5949 40.6866 18.6787 40.6866 18.7624V22.1757C40.6866 22.2594 40.6447 22.3432 40.5819 22.385C40.3935 22.4269 40.2888 22.4269 40.205 22.385Z" fill="#F1E9DB"/>
</svg>
