<svg width="54" height="53" viewBox="0 0 54 53" fill="none" xmlns="http://www.w3.org/2000/svg">
<g clip-path="url(#clip0_1_100)">
<path d="M32.1746 26.5089C32.1746 27.8181 31.6547 29.0738 30.7291 29.9997C29.8036 30.9257 28.5482 31.4462 27.239 31.4468C25.9294 31.4468 24.6734 30.9265 23.7474 30.0005C22.8214 29.0745 22.3011 27.8185 22.3011 26.5089C22.3011 25.1997 22.8211 23.9441 23.7466 23.0181C24.6721 22.0922 25.9275 21.5717 27.2368 21.5711C28.5463 21.5711 29.8023 22.0913 30.7283 23.0174C31.6543 23.9434 32.1746 25.1993 32.1746 26.5089ZM38.0222 2.90186C35.0498 2.90186 31.161 5.02186 27.2279 8.69211C23.2971 5.04173 19.406 2.94602 16.4358 2.94602C15.5304 2.94602 14.7067 3.1514 13.9934 3.55994C10.9569 5.31115 10.2768 10.7679 11.8447 17.616C5.1225 19.6918 0.75 23.0109 0.75 26.5089C0.75 30.0202 5.14458 33.3481 11.8866 35.4085C10.332 42.2831 11.0254 47.7487 14.0685 49.4977C14.7751 49.9106 15.5922 50.105 16.502 50.105C19.4722 50.105 23.3633 47.985 27.2964 44.3103C31.2272 47.9629 35.1183 50.0586 38.0885 50.0586C38.9939 50.0586 39.8176 49.8599 40.5309 49.4513C43.5652 47.7023 44.2475 42.2455 42.6796 35.3953C49.3775 33.3371 53.75 30.0114 53.75 26.5089C53.75 22.9977 49.3554 19.6697 42.6134 17.6049C44.168 10.737 43.4746 5.26698 40.4315 3.51577C39.7293 3.10944 38.9144 2.90406 38.0222 2.90186ZM38.0112 5.30894V5.32219C38.5081 5.32219 38.9078 5.41936 39.2435 5.60265C40.7142 6.44623 41.3524 9.65494 40.8555 13.7823C40.7363 14.7981 40.542 15.8692 40.3035 16.9623C38.1835 16.4411 35.8735 16.0414 33.4422 15.7831C31.9847 13.7845 30.472 11.9693 28.9482 10.3793C32.4639 7.11094 35.7653 5.31777 38.0134 5.31115L38.0112 5.30894ZM16.4358 5.35311C18.6706 5.35311 21.9875 7.13744 25.512 10.3881C23.9971 11.9781 22.4866 13.7823 21.0512 15.7809C18.6066 16.0392 16.2945 16.4389 14.1767 16.9689C13.9293 15.8869 13.746 14.8401 13.6158 13.8331C13.1078 9.70794 13.735 6.50144 15.1925 5.64681C15.6121 5.44806 16.0758 5.36415 16.4358 5.35311ZM27.2169 12.0885C28.2217 13.122 29.2265 14.2792 30.2202 15.5424C29.2485 15.4982 28.2548 15.4673 27.25 15.4673C26.2342 15.4673 25.2294 15.4894 24.2467 15.5424C25.2183 14.2792 26.2231 13.1242 27.2169 12.0885ZM27.25 17.8876C28.8842 17.8876 30.5117 17.9627 32.1127 18.093C33.0093 19.3782 33.8838 20.7496 34.7252 22.2005C35.5467 23.6138 36.2931 25.0492 36.9733 26.4979C36.2931 27.9444 35.5467 29.3908 34.7362 30.8041C33.8971 32.2616 33.0292 33.6485 32.1304 34.9337C30.5227 35.0729 28.893 35.1501 27.25 35.1501C25.6158 35.1501 23.9883 35.0729 22.3872 34.9448C21.4907 33.6595 20.6162 32.2859 19.7748 30.8373C18.9533 29.4239 18.2069 27.9885 17.5267 26.5399C18.1958 25.089 18.9533 23.6403 19.7637 22.2248C20.6029 20.7673 21.4708 19.3849 22.3696 18.0996C23.9772 17.9583 25.607 17.8832 27.25 17.8832V17.8876ZM19.2227 18.4485C18.6927 19.2811 18.1627 20.1335 17.668 21.0102C17.1712 21.8714 16.7074 22.7371 16.2657 23.6028C15.6805 22.1541 15.1837 20.7099 14.7729 19.3031C16.1862 18.9719 17.6769 18.676 19.2227 18.4485ZM35.2552 18.4485C36.79 18.676 38.2696 18.9564 39.6851 19.3031C39.2876 20.6988 38.7908 22.1342 38.2276 23.5719C37.786 22.7106 37.3222 21.8427 36.8143 20.9793C36.3174 20.1136 35.7874 19.27 35.2574 18.4485H35.2552ZM42.0193 19.9391C43.0882 20.2704 44.104 20.6392 45.0558 21.0389C48.8806 22.6731 51.354 24.8107 51.354 26.5067C51.3429 28.2027 48.8696 30.3492 45.0447 31.9724C44.1172 32.3699 43.1014 32.7276 42.0525 33.0611C41.4341 30.9455 40.6259 28.7416 39.6233 26.4802C40.617 24.2344 41.412 22.0415 42.0193 19.9347V19.9391ZM12.4387 19.948C13.0526 22.068 13.8631 24.2697 14.8679 26.5288C13.8741 28.7747 13.0747 30.9676 12.4696 33.0743C11.4008 32.7431 10.385 32.3721 9.44421 31.9701C5.61937 30.3426 3.14604 28.2027 3.14604 26.5067C3.14604 24.8107 5.61937 22.6598 9.44421 21.0389C10.3717 20.6414 11.3875 20.2836 12.4387 19.948ZM38.2276 29.3996C38.8128 30.8505 39.3097 32.297 39.7205 33.7015C38.3071 34.0482 36.8143 34.3419 35.2685 34.5627C35.7985 33.7346 36.3285 32.88 36.8253 32.0055C37.3222 31.1442 37.7838 30.2653 38.2276 29.3996ZM16.2657 29.4438C16.7074 30.3095 17.1712 31.1729 17.6791 32.0386C18.187 32.8999 18.706 33.7434 19.236 34.5627C17.7012 34.3375 16.2216 34.0548 14.806 33.7103C15.2035 32.3191 15.7026 30.8792 16.2635 29.4416L16.2657 29.4438ZM40.3233 36.0401C40.5707 37.1288 40.765 38.1778 40.8842 39.1826C41.3922 43.3077 40.765 46.5142 39.3075 47.3711C38.9829 47.5698 38.5611 47.6537 38.0642 47.6537C35.8294 47.6537 32.5125 45.8716 28.988 42.6187C30.5029 41.0287 32.0134 39.2267 33.4488 37.2304C35.8934 36.9698 38.2055 36.5701 40.3233 36.0401ZM14.1987 36.0622C16.3187 36.5789 18.6287 36.9786 21.06 37.237C22.5175 39.2356 24.0302 41.0508 25.554 42.6386C22.0317 45.9136 18.7258 47.7067 16.4777 47.7067C15.9919 47.6957 15.5812 47.5963 15.2565 47.4152C13.7858 46.5761 13.1476 43.3651 13.6445 39.2378C13.7637 38.2219 13.9602 37.1531 14.1987 36.0622ZM24.2687 37.4755C25.2404 37.5197 26.2342 37.5506 27.239 37.5506C28.2548 37.5506 29.2596 37.5285 30.2423 37.4755C29.2706 38.7387 28.2658 39.8936 27.2721 40.9316C26.2673 39.8936 25.2625 38.7387 24.2687 37.4755Z" fill="#F1E9DB"/>
</g>
<defs>
<clipPath id="clip0_1_100">
<rect width="53" height="53" fill="white" transform="translate(0.75)"/>
</clipPath>
</defs>
</svg>
