<svg width="65" height="65" viewBox="0 0 65 65" fill="none" xmlns="http://www.w3.org/2000/svg">
<g clip-path="url(#clip0_1_157)">
<path fill-rule="evenodd" clip-rule="evenodd" d="M32.5001 0C50.4493 0 65 14.5509 65 32.5C65 50.4493 50.4493 65 32.5001 65C14.5509 65 0 50.4493 0 32.5C0 14.5509 14.5509 0 32.5001 0Z" fill="#2D2E32"/>
<path d="M52.8863 13.9106C51.4145 8.13843 41.8437 6.24086 32.7855 9.459C27.3948 11.3742 21.5589 14.38 17.3629 18.3048C12.3737 22.9714 11.5781 27.0331 11.906 28.7302C13.0628 34.7187 21.2683 38.6331 24.6413 41.5373V41.5549C23.6467 42.0444 16.3669 45.7286 14.6632 49.4952C12.8656 53.4687 14.9494 56.3201 16.329 56.7038C20.6033 57.8931 24.9896 55.754 27.3468 52.2381C29.6215 48.8451 29.4322 44.4634 28.4436 42.284C29.8072 41.9242 31.397 41.763 33.4174 41.999C39.1184 42.6649 40.237 46.2246 40.0231 47.7143C39.8093 49.2042 38.6136 50.0233 38.2137 50.2705C37.8139 50.5179 37.6917 50.6036 37.7254 50.7874C37.7739 51.0547 37.959 51.0448 38.2999 50.987C38.7692 50.9079 41.2937 49.7751 41.4014 47.0252C41.5389 43.5336 38.193 39.6281 32.2686 39.7301C29.8287 39.7722 28.2944 40.0043 27.1861 40.4166C27.1041 40.3233 27.0208 40.2305 26.9346 40.1385C23.272 36.2307 16.5011 33.4666 16.7883 28.2133C16.8928 26.3034 17.5566 21.2744 29.7984 15.1743C39.8267 10.1773 47.8549 11.5523 49.2422 14.5998C51.2241 18.9537 44.9516 27.0459 34.5373 28.2133C30.5696 28.6581 28.4803 27.1202 27.9605 26.5475C27.4134 25.9445 27.3319 25.9173 27.1276 26.0304C26.7949 26.2148 27.0057 26.7471 27.1276 27.0643C27.4386 27.8735 28.7145 29.3086 30.89 30.0225C32.8037 30.6505 37.4622 30.9955 43.0963 28.8163C49.4061 26.3756 54.3335 19.5859 52.8863 13.9106ZM26.0413 43.326C26.514 45.0751 26.4622 46.7062 25.9737 48.1833C25.5852 49.3581 24.9172 50.4233 24.0834 51.3331C22.1951 53.3932 19.5567 54.172 18.4255 53.5158C17.2038 52.8076 17.8157 49.9031 20.0051 47.5889C22.3604 45.0991 25.7491 43.4982 25.7491 43.4982L25.7441 43.488C25.8416 43.4355 25.9407 43.3814 26.0413 43.326Z" fill="white"/>
</g>
<defs>
<clipPath id="clip0_1_157">
<rect width="65" height="65" fill="white"/>
</clipPath>
</defs>
</svg>
