<svg width="45" height="50" viewBox="0 0 45 50" fill="none" xmlns="http://www.w3.org/2000/svg">
<path d="M30.1392 5.83305C30.1359 5.83403 29.5801 6.0061 28.6419 6.29653C28.4853 5.78803 28.2545 5.16332 27.9254 4.53579C26.8642 2.51176 25.311 1.44038 23.4335 1.43764C23.4313 1.43764 23.4294 1.43764 23.4271 1.43764C23.297 1.43764 23.1673 1.44995 23.0375 1.46167C22.9823 1.39526 22.9265 1.32934 22.8678 1.26645C22.0504 0.391552 21.0008 -0.0346198 19.7444 0.0021966C17.3192 0.0717278 14.9052 1.8229 12.9472 4.93286C11.5688 7.12172 10.5218 9.87133 10.2239 11.9995C7.43993 12.8617 5.49199 13.4649 5.4499 13.4782C4.04463 13.9192 4.00048 13.9633 3.81621 15.2873C3.67666 16.2897 0 44.724 0 44.724L30.5085 50V5.77065C30.358 5.78022 30.2235 5.80825 30.1392 5.83305ZM23.0944 8.0142C21.48 8.5141 19.7174 9.0599 17.9494 9.60736C18.4472 7.70317 19.3894 5.80737 20.5472 4.56518C20.978 4.10317 21.5805 3.58764 22.294 3.29321C22.9652 4.69194 23.1106 6.67475 23.0944 8.0142ZM19.791 1.61567C20.3603 1.60376 20.8399 1.72866 21.2494 1.99819C20.5944 2.33823 19.9607 2.82719 19.3665 3.4645C17.8262 5.11684 16.6464 7.68237 16.1759 10.1565C14.7075 10.6112 13.2714 11.0558 11.9502 11.465C12.7836 7.5686 16.0484 1.72329 19.791 1.61567ZM15.0725 23.8057C15.2364 26.4011 22.0641 26.9682 22.448 33.0472C22.75 37.8299 19.9113 41.1013 15.8209 41.3597C10.9124 41.6695 8.20966 38.7733 8.20966 38.7733L9.2497 34.3482C9.2497 34.3482 11.9696 36.4004 14.147 36.2629C15.5691 36.1731 16.0774 35.0164 16.0258 34.1984C15.812 30.8128 10.2521 31.0122 9.90087 25.4492C9.60526 20.7673 12.6796 16.0243 19.4634 15.5959C22.0772 15.4309 23.4156 16.0983 23.4156 16.0983L21.8642 21.9014C21.8642 21.9014 20.1339 21.1135 18.0824 21.243C15.0744 21.4327 15.0425 23.3302 15.0725 23.8057ZM24.7065 7.51508C24.6887 6.28715 24.542 4.57915 23.9699 3.10268C25.8098 3.45131 26.7158 5.53315 27.0981 6.77455C26.3891 6.99409 25.5814 7.24408 24.7065 7.51508Z" fill="#F1E9DB"/>
<path d="M31.5174 49.8794L44.1737 46.7335C44.1737 46.7335 38.7245 9.89096 38.6899 9.63833C38.6553 9.38559 38.434 9.24585 38.2514 9.23061C38.0689 9.21538 34.5059 9.16118 34.5059 9.16118C34.5059 9.16118 32.3335 7.05132 31.5173 6.25317V49.8794H31.5174Z" fill="#F1E9DB"/>
</svg>
