<svg width="55" height="55" viewBox="0 0 55 55" fill="none" xmlns="http://www.w3.org/2000/svg">
<g clip-path="url(#clip0_1_110)">
<path d="M27.5023 11C20.169 11 15.5856 14.6667 13.7523 22C16.5023 18.3333 19.7106 16.9583 23.3773 17.875C25.4696 18.3975 26.9637 19.9146 28.6206 21.5967C31.3179 24.3329 34.4369 27.5 41.2523 27.5C48.5856 27.5 53.169 23.8333 55.0023 16.5C52.2523 20.1667 49.044 21.5417 45.3773 20.625C43.285 20.1025 41.7908 18.5854 40.134 16.9033C37.439 14.1671 34.32 11 27.5023 11ZM13.7523 27.5C6.41896 27.5 1.83562 31.1667 0.00228882 38.5C2.75229 34.8333 5.96062 33.4583 9.62729 34.375C11.7196 34.8975 13.2137 36.4146 14.8706 38.0967C17.5679 40.8329 20.6869 44 27.5023 44C34.8356 44 39.419 40.3333 41.2523 33C38.5023 36.6667 35.294 38.0417 31.6273 37.125C29.535 36.6025 28.0408 35.0854 26.384 33.4033C23.689 30.6671 20.57 27.5 13.7523 27.5Z" fill="#F2F2F2"/>
</g>
<defs>
<clipPath id="clip0_1_110">
<rect width="55" height="55" fill="white"/>
</clipPath>
</defs>
</svg>
