<svg width="50" height="50" viewBox="0 0 50 50" fill="none" xmlns="http://www.w3.org/2000/svg">
<path d="M40.2344 2.34375H9.76562C5.23516 2.34375 1.5625 6.01641 1.5625 10.5469V39.4531C1.5625 43.9836 5.23516 47.6562 9.76562 47.6562H40.2344C44.7648 47.6562 48.4375 43.9836 48.4375 39.4531V10.5469C48.4375 6.01641 44.7648 2.34375 40.2344 2.34375Z" fill="#3A3B40"/>
<path d="M25.6582 15.164L19.8926 25.0702L26.1055 35.6171C26.2324 35.8319 26.1777 35.9374 25.9453 35.9374H22.0703C21.9744 35.9475 21.8776 35.9285 21.7926 35.8829C21.7076 35.8373 21.6383 35.7671 21.5938 35.6815L17.2207 27.6601H17.1875L12.9297 35.6815C12.8905 35.7579 12.8313 35.822 12.7583 35.8671C12.6853 35.9122 12.6014 35.9365 12.5156 35.9374H8.78906C8.57617 35.9374 8.53516 35.8319 8.66211 35.6171L14.7715 25.3593L8.95117 15.0995C8.82422 14.9296 8.86719 14.8436 9.07813 14.8436H12.9609C13.0442 14.8377 13.1274 14.8557 13.2008 14.8955C13.2741 14.9353 13.3346 14.9952 13.375 15.0683L17.4766 22.994H17.5078L21.5879 15.0683C21.6282 14.9955 21.6883 14.9358 21.7613 14.896C21.8343 14.8562 21.9171 14.8381 22 14.8436H25.5313C25.7656 14.8436 25.8066 14.9511 25.6582 15.164Z" fill="#F1E9DB"/>
<path d="M35.1309 36.328C32.8652 36.328 31.1211 35.6855 29.7676 34.4023C28.4141 33.1191 27.7344 31.2226 27.7344 28.7109C27.7344 26.4283 28.4622 24.5533 29.918 23.0859C30.6629 22.3149 31.5585 21.7055 32.549 21.2955C33.5396 20.8856 34.6039 20.6839 35.6758 20.703C36.1555 20.6945 36.6345 20.7457 37.1016 20.8554V14.246C37.098 14.2213 37.1003 14.196 37.1081 14.1723C37.116 14.1485 37.1292 14.1269 37.1468 14.1091C37.1644 14.0914 37.1859 14.0779 37.2095 14.0698C37.2332 14.0617 37.2584 14.0592 37.2832 14.0624H40.8535C40.9531 14.0624 41.0039 14.123 41.0039 14.246V32.7519C41.0039 33.5331 41.3418 34.1991 41.3945 34.7695C41.4053 34.8259 41.396 34.8844 41.3681 34.9347C41.3403 34.985 41.2957 35.024 41.2422 35.0448C39.4902 35.9003 37.1934 36.328 35.1309 36.328ZM37.1094 33.3027V23.8554C36.9824 23.6327 36.3105 23.4374 35.623 23.4374C35.054 23.4227 34.4889 23.5351 33.9689 23.7666C33.4489 23.998 32.9871 24.3427 32.6172 24.7753C31.7164 25.8304 31.2304 27.1772 31.25 28.5644C31.25 30.2753 31.8359 31.4472 32.5996 32.2616C32.9606 32.6756 33.4052 33.0083 33.9041 33.2379C34.403 33.4675 34.9449 33.5888 35.4941 33.5937C36.2227 33.5937 36.9355 33.4843 37.1094 33.3027Z" fill="#F1E9DB"/>
</svg>
